<svg width="23" height="23" viewBox="0 0 23 23" fill="none" xmlns="http://www.w3.org/2000/svg">
<path d="M17.4892 2.97803C18.7206 2.97803 19.7218 3.97919 19.7218 5.21059V9.11756H17.4892V5.21059H4.09389V16.3734H9.11714V18.6059H4.09389L3.86714 18.5955C2.81714 18.4873 1.97993 17.6536 1.87528 16.6036L1.86133 16.3734V5.21059C1.86133 4.05593 2.7404 3.10361 3.86714 2.98849L4.09389 2.97803H17.4892ZM18.0474 10.792C18.9718 10.792 19.7218 11.542 19.7218 12.4664V16.9315C19.7218 17.8559 18.9718 18.6059 18.0474 18.6059H12.466C11.5416 18.6059 10.7916 17.8559 10.7916 16.9315V12.4664C10.7916 11.542 11.5416 10.792 12.466 10.792H18.0474Z" fill="#FDFEFF"/>
</svg>
