<svg width="24" height="24" viewBox="0 0 24 24" fill="none" xmlns="http://www.w3.org/2000/svg">
<path d="M8.08523 2.05795C7.75439 1.25877 6.88216 0.833398 6.04861 1.06112L2.26752 2.09233C1.5199 2.29857 1 2.97744 1 3.75085C1 14.3808 9.61915 23 20.2492 23C21.0226 23 21.7014 22.4801 21.9077 21.7325L22.9389 17.9514C23.1666 17.1178 22.7412 16.2456 21.942 15.9148L17.8172 14.1961C17.1169 13.9039 16.3048 14.1059 15.8279 14.6945L14.092 16.8128C11.0671 15.382 8.61802 12.9329 7.18723 9.908L9.30549 8.17643C9.89414 7.69521 10.0961 6.88743 9.80391 6.18707L8.08523 2.06225V2.05795Z" fill="#FDFEFF"/>
</svg>
