<svg width="20" height="20" viewBox="0 0 20 20" fill="none" xmlns="http://www.w3.org/2000/svg">
<path d="M8.9585 5.93742C8.9585 5.41984 9.42508 4.99992 10.0002 4.99992C10.5752 4.99992 11.0418 5.41984 11.0418 5.93742C11.0418 6.455 10.5752 6.87492 10.0002 6.87492C9.42508 6.87492 8.9585 6.455 8.9585 5.93742ZM7.91683 8.74992C7.91683 8.40422 8.22716 8.12492 8.61127 8.12492H10.0002C10.3843 8.12492 10.6946 8.40422 10.6946 8.74992V13.7499H11.3891C11.7732 13.7499 12.0835 14.0292 12.0835 14.3749C12.0835 14.7206 11.7732 14.9999 11.3891 14.9999H8.61127C8.22716 14.9999 7.91683 14.7206 7.91683 14.3749C7.91683 14.0292 8.22716 13.7499 8.61127 13.7499H9.30572V9.37492H8.61127C8.22716 9.37492 7.91683 9.09562 7.91683 8.74992Z" fill="#FDFEFF"/>
<path d="M17.5002 9.99992C17.5002 5.85778 14.1423 2.49992 10.0002 2.49992C5.85803 2.49992 2.50016 5.85778 2.50016 9.99992C2.50016 14.1421 5.85803 17.4999 10.0002 17.4999V19.1666C4.93755 19.1666 0.833496 15.0625 0.833496 9.99992C0.833496 4.93731 4.93755 0.833252 10.0002 0.833252C15.0628 0.833252 19.1668 4.93731 19.1668 9.99992C19.1668 15.0625 15.0628 19.1666 10.0002 19.1666V17.4999C14.1423 17.4999 17.5002 14.1421 17.5002 9.99992Z" fill="#FDFEFF"/>
</svg>
