<svg width="24" height="24" viewBox="0 0 24 24" fill="none" xmlns="http://www.w3.org/2000/svg">
<path d="M11.9971 2.37012C12.6081 2.37012 13.1706 2.69014 13.4809 3.22352L22.7617 19.0406C23.2466 19.8553 22.9653 20.9123 22.1507 21.3972C21.8889 21.5524 21.5882 21.6299 21.2779 21.6299H2.71633C1.76594 21.6299 0.999817 20.8638 0.999817 19.9134C0.999817 19.6031 1.0774 19.3025 1.23256 19.0406L10.5134 3.22352C10.8237 2.69984 11.3862 2.37012 11.9971 2.37012Z" fill="#F4453C"/>
<path fill-rule="evenodd" clip-rule="evenodd" d="M13.0851 9.69231C13.0851 9.08737 12.6032 8.60547 11.9982 8.60547C11.3933 8.60547 10.9114 9.08737 10.9114 9.69231V13.8081C10.9114 14.413 11.3933 14.8949 11.9982 14.8949C12.6032 14.8949 13.0851 14.413 13.0851 13.8081V9.69231ZM11.9982 16.3611C11.1985 16.3611 10.5423 17.0174 10.5423 17.8171C10.5423 18.6168 11.1985 19.2731 11.9982 19.2731C12.798 19.2731 13.4542 18.6168 13.4542 17.8171C13.4542 17.0174 12.798 16.3611 11.9982 16.3611Z" fill="white"/>
</svg>
