<svg width="24" height="24" viewBox="0 0 24 24" fill="none" xmlns="http://www.w3.org/2000/svg">
<path d="M11.9973 2.37009C12.6083 2.37009 13.1707 2.69011 13.4811 3.22349L22.7619 19.0406C23.2468 19.8552 22.9655 20.9123 22.1509 21.3972C21.8891 21.5523 21.5884 21.6299 21.2781 21.6299H2.71651C1.76613 21.6299 1 20.8638 1 19.9134C1 19.6031 1.07758 19.3024 1.23275 19.0406L10.5135 3.22349C10.8239 2.69981 11.3863 2.37009 11.9973 2.37009Z" fill="#FDFEFF"/>
<path fill-rule="evenodd" clip-rule="evenodd" d="M13.0848 9.69252C13.0848 9.08758 12.6029 8.60568 11.9979 8.60568C11.393 8.60568 10.9111 9.08758 10.9111 9.69252V13.8083C10.9111 14.4133 11.393 14.8952 11.9979 14.8952C12.6029 14.8952 13.0848 14.4133 13.0848 13.8083V9.69252ZM11.9979 16.3614C11.1982 16.3614 10.542 17.0176 10.542 17.8173C10.542 18.6171 11.1982 19.2733 11.9979 19.2733C12.7977 19.2733 13.4539 18.6171 13.4539 17.8173C13.4539 17.0176 12.7977 16.3614 11.9979 16.3614Z" fill="#EF7D00"/>
</svg>
